<svg width="119" height="119" viewBox="0 0 119 119" fill="none" xmlns="http://www.w3.org/2000/svg">
<circle cx="59.5" cy="59.5" r="58.5" fill="white" stroke="#6F6266" stroke-width="2"/>
<path d="M35.8529 59.226C33.9258 56.1169 29.8557 49.7754 28.9923 49.282C27.7075 47.7403 26.1958 48.023 25.6006 48.357C24.0332 48.9737 20.9447 50.6696 19.588 51.9029C17.8921 53.4446 15.794 59.226 18.4317 67.9366C21.7463 78.8827 25.6006 82.7369 34.157 90.4454C42.7134 98.1539 52.5803 99.156 58.7471 99.3102C64.9139 99.4643 65.916 96.6122 67.766 93.2205C69.2461 90.5071 68.5369 88.3024 67.3035 87.4391C64.991 85.8203 59.789 82.0602 57.0512 80.8869C54.3533 79.7306 53.1522 83.7784 51.7324 85.4349C50.3449 87.0537 49.2657 87.2824 45.8739 86.3599C36.2383 83.739 30.9195 71.4054 30.1486 69.4012C29.4667 67.6283 31.382 65.7011 34.3112 63.3886C36.6546 61.5386 36.8085 60.7677 35.8529 59.226Z" stroke="#6F6266" stroke-width="2"/>
<path d="M64.6054 77.0325C62.9867 73.7181 66.5326 72.7931 68.3055 69.0928C51.4239 66.549 48.8801 54.9093 47.8009 42.7297C45.1475 12.784 91.9706 11.048 97.0582 34.0962C103.854 64.8819 69.8472 80.1932 64.6054 77.0325Z" stroke="#6F6266" stroke-width="2"/>
<circle cx="64.1429" cy="45.2737" r="1.62089" stroke="#6F6266" stroke-width="2"/>
<circle cx="73.3929" cy="45.2737" r="1.62089" stroke="#6F6266" stroke-width="2"/>
<circle cx="82.1809" cy="45.2737" r="1.62089" stroke="#6F6266" stroke-width="2"/>
</svg>
