<svg width="24" height="22" viewBox="0 0 24 22" fill="none" xmlns="http://www.w3.org/2000/svg">
<path d="M18.5244 21.0095L5.18776 21.0095C2.87555 21.0095 1 19.1988 1 16.9664L1 5.04304C1 2.81073 2.87555 1 5.18776 1L18.527 1C20.8393 1 22.7148 2.81073 22.7148 5.04304L22.7148 16.9664C22.7122 19.1988 20.8367 21.0095 18.5244 21.0095Z" stroke="#6F6266" stroke-miterlimit="10"/>
<path d="M13.3231 8.24264V6.86402C13.3231 6.65706 13.3334 6.49676 13.3541 6.38352C13.3748 6.27011 13.4219 6.15857 13.4949 6.04846C13.5678 5.93842 13.6859 5.86245 13.849 5.82036C14.0123 5.77819 14.2293 5.75717 14.5003 5.75717H15.9793V3H13.6148C12.2466 3 11.264 3.30255 10.6668 3.90764C10.0696 4.51287 9.77102 5.40436 9.77102 6.58245V8.24261H8V11H9.77091V19H13.3231V11H15.6875L16 8.24264H13.3231V8.24264Z" fill="#6F6266"/>
</svg>
