<svg width="23" height="22" viewBox="0 0 23 22" fill="none" xmlns="http://www.w3.org/2000/svg">
<path d="M17.9225 21.0069L4.93682 21.0069C2.68545 21.0069 0.859253 19.1962 0.859253 16.9639L0.859253 5.04304C0.859253 2.81073 2.68545 1 4.93682 1L17.9225 1C20.1739 1 22.0001 2.81073 22.0001 5.04304L22.0001 16.9664C21.9975 19.1987 20.1739 21.0069 17.9225 21.0069Z" stroke="#6F6266" stroke-miterlimit="10"/>
<path d="M11.4296 16.7595C8.22799 16.7595 5.62573 14.1767 5.62573 11.0047C5.62573 7.83024 8.22799 5.25 11.4296 5.25C14.6286 5.25 17.2335 7.83024 17.2335 11.0047C17.2335 14.1767 14.6286 16.7595 11.4296 16.7595Z" stroke="#6F6266" stroke-miterlimit="10"/>
<path d="M18.3475 5.428C18.3475 6.08829 17.8097 6.62161 17.1437 6.62161C16.4778 6.62161 15.9399 6.08575 15.9399 5.428C15.9399 4.7677 16.4803 4.23438 17.1437 4.23438C17.8097 4.23185 18.3475 4.7677 18.3475 5.428Z" stroke="#6F6266" stroke-miterlimit="10"/>
</svg>
