<svg width="629" height="487" viewBox="0 0 629 487" fill="none" xmlns="http://www.w3.org/2000/svg">
<path d="M1.59131 344.336L117.552 143.605L232.715 344.336C141.436 442.042 40.5996 385.047 1.59131 344.336Z" stroke="#C8BEC1"/>
<path d="M29.5176 342.218L117.552 154.43L206.385 342.218H29.5176Z" stroke="#C8BEC1"/>
<path d="M396.284 255.619L512.245 54.8887L627.408 255.619C536.129 353.325 435.292 296.33 396.284 255.619Z" stroke="#C8BEC1"/>
<path d="M424.211 253.501L512.246 65.7139L601.078 253.501H424.211Z" stroke="#C8BEC1"/>
<path d="M307.984 1C279.047 20.7671 290.43 49.0843 299.739 60.772L292.292 76.0679C242.929 80.7744 159.132 156.862 117.021 147.135C140.514 161.882 206.917 135.605 282.451 95.5997C280.501 116.23 279.738 162.855 292.292 184.316C307.984 211.143 282.451 280.328 282.451 290.447C282.451 300.566 256.387 390.694 296.547 453.29C255.5 455.486 164.682 465.103 129.787 486H306.388" stroke="#C8BEC1"/>
<path d="M307.984 1C336.921 20.7671 325.537 49.0843 316.229 60.772L323.676 76.0679C373.039 80.7744 469.602 62.4977 511.713 52.771C488.22 67.5179 419.689 96.7293 333.516 95.5997C335.467 116.23 336.229 162.855 323.676 184.316C307.984 211.143 333.516 280.328 333.516 290.447C333.516 300.566 359.581 390.694 319.42 453.29C360.468 455.486 451.286 465.103 486.181 486H309.579" stroke="#C8BEC1"/>
</svg>
