<?xml version="1.0" encoding="UTF-8"?>
<!DOCTYPE svg PUBLIC "-//W3C//DTD SVG 1.1//EN" "http://www.w3.org/Graphics/SVG/1.1/DTD/svg11.dtd">
<!-- Creator: CorelDRAW 2017 -->
<svg xmlns="http://www.w3.org/2000/svg" xml:space="preserve" width="70mm" height="19mm" version="1.1" style="shape-rendering:geometricPrecision; text-rendering:geometricPrecision; image-rendering:optimizeQuality; fill-rule:evenodd; clip-rule:evenodd"
viewBox="0 0 70 19"
 xmlns:xlink="http://www.w3.org/1999/xlink">
 <defs>
  <style type="text/css">
   <![CDATA[
    .str1 {stroke:#6F6266;stroke-width:0.25;stroke-miterlimit:22.9256}
    .str0 {stroke:#6F6266;stroke-width:0.15;stroke-miterlimit:22.9256}
    .fil1 {fill:none}
    .fil0 {fill:#65AA21}
   ]]>
  </style>
 </defs>
 <g id="Слой_x0020_1">
  <metadata id="CorelCorpID_0Corel-Layer"/>
  <path class="fil0 str0" d="M10.9088 10.4951c0,0 -2.7649,-0.9647 -2.8751,-2.5742 0.1905,-1.1445 0.5362,-2.1267 1.106,-3.0882 0.3307,-0.3748 -0.3343,-1.1452 -1.0839,-0.5278 -0.7496,0.6174 -1.8751,2.2404 -4.1452,0.904 -1.3523,-0.7961 -2.6077,-0.8774 -3.7704,-0.8158 0.4613,-1.1982 2.6328,-3.6046 3.7484,-3.8362 1.1686,-0.2426 2.0284,-0.5514 3.2852,0.1763 1.2568,0.7277 1.2568,1.5434 1.4332,1.7639 0.1764,0.2205 0.2867,0.6395 0.4851,0.9261 0.1984,0.2866 0.9293,-0.0194 1.1498,-0.0856 1.6931,-1.8715 4.1412,-3.0474 6.8636,-3.0474 5.1103,0 9.2531,4.1428 9.2531,9.253 0,5.1103 -4.1428,9.2531 -9.2531,9.2531 -4.4441,0 -8.0892,-3.139 -9.0452,-7.3035l2.9772 0.0179c0,0 0.5612,1.4824 1.4018,2.3059 0.3623,0.3552 0.7866,0.6156 1.0756,-0.0335l3.2281 -7.2512c0,0 0.5734,-0.9922 1.4553,0.0441 0.8819,1.0363 1.5434,1.6757 1.5434,1.6757 0,0 0.6614,0.7497 1.5434,-0.0882 0.882,-0.8379 1.1479,-0.9181 1.1479,-0.9181 0,0 0.639,-0.4029 -0.1768,-1.3289 -1.1276,-1.6496 -3.0239,-2.7324 -5.1731,-2.7324 -3.4584,0 -6.2618,2.8034 -6.2618,6.2618 0,0.3575 0.03,0.7082 0.0875,1.0492zm12.5237 -0.5272l-2.0523 1.4489c-0.7759,0.5933 -1.3534,0.5565 -1.9638,-0.0278l-1.7745 -2.3482 -2.0547 6.7738c0.6557,0.1797 1.3554,0.2394 2.0717,0.1837 3.2132,-0.2497 5.6707,-2.8826 5.7736,-6.0304z"/>
  <path class="fil1 str1" d="M31.6569 4.5955c-0.5798,-0.0221 -1.0417,0.3978 -1.0382,0.8376l0.013 1.5697c0.0042,0.5161 0.6198,0.7888 1.0695,0.7888 0.4497,0 0.9766,-0.2727 0.9809,-0.7888l0.013 -1.5697c0.0035,-0.4398 -0.4584,-0.8597 -1.0382,-0.8376z"/>
  <path class="fil1 str1" d="M36.3772 5.4331c0.0035,-0.4398 -0.4584,-0.8597 -1.0382,-0.8376 -0.5798,-0.0221 -1.0417,0.3978 -1.0382,0.8376l0.013 1.5697c0.0042,0.5161 0.6198,0.7888 1.0695,0.7888 0.4497,0 0.9766,-0.2727 0.9809,-0.7888"/>
  <path class="fil1 str1" d="M38.7784 4.5955c-0.5798,-0.0221 -1.0417,0.3978 -1.0382,0.8376l0.013 1.5697c0.0042,0.5161 0.6198,0.7888 1.0695,0.7888 0.4497,0 0.9766,-0.2727 0.9809,-0.7888l0.013 -1.5697c0.0035,-0.4398 -0.4584,-0.8597 -1.0382,-0.8376z"/>
  <path class="fil1 str1" d="M41.3871 7.0407c0.0042,0.5161 0.6198,0.7888 1.0695,0.7888 0.4497,0 0.9769,-0.2727 0.9809,-0.7888 0.0681,-0.5307 -0.4103,-0.9534 -0.8126,-0.9536l-0.5137 -0.0002 0.5137 -0.0002c0.4906,-0.0001 0.709,-0.3946 0.7126,-0.8536 -0.0434,-0.404 -0.265,-0.6725 -0.8475,-0.7028 -0.5908,0.0164 -0.9324,0.363 -0.9289,0.8028"/>
  <line class="fil1 str1" x1="45.0952" y1="4.4847" x2="45.0952" y2= "7.9243" />
  <line class="fil1 str1" x1="45.1184" y1="6.2045" x2="47.2157" y2= "6.2045" />
  <line class="fil1 str1" x1="47.2157" y1="4.4847" x2="47.2157" y2= "7.9243" />
  <polyline class="fil1 str1" points="48.515,7.8743 49.8379,4.5229 51.1608,7.8743 "/>
  <line class="fil1 str1" x1="48.9463" y1="6.7814" x2="50.7248" y2= "6.7814" />
  <line class="fil1 str1" x1="52.4617" y1="4.4847" x2="52.4617" y2= "7.9243" />
  <line class="fil1 str1" x1="52.4849" y1="6.2045" x2="54.5822" y2= "6.2045" />
  <line class="fil1 str1" x1="54.5822" y1="4.4847" x2="54.5822" y2= "7.9243" />
  <line class="fil1 str1" x1="56.232" y1="4.4847" x2="56.232" y2= "7.9243" />
  <line class="fil1 str1" x1="56.2552" y1="6.2045" x2="58.3525" y2= "6.2045" />
  <line class="fil1 str1" x1="58.3525" y1="4.4847" x2="58.3525" y2= "7.9243" />
  <polyline class="fil1 str1" points="59.6275,7.8743 60.9504,4.5229 62.2733,7.8743 "/>
  <line class="fil1 str1" x1="60.0588" y1="6.7814" x2="61.8373" y2= "6.7814" />
  <path class="fil1 str1" d="M65.1728 7.9184l0 -3.3955 -1.1387 0c-0.8415,0.0142 -0.8751,1.808 0.2237,1.808l0.915 0"/>
  <line class="fil1 str1" x1="64.2578" y1="6.3309" x2="63.3317" y2= "7.9625" />
  <polyline class="fil1 str1" points="30.8095,14.1972 30.8095,10.8861 30.8738,10.8868 32.1353,13.7978 32.2217,13.7991 33.6229,10.8782 33.6759,10.8778 33.6759,14.2012 "/>
  <path class="fil1 str1" d="M36.3022 10.9011c-0.5798,-0.0221 -1.0417,0.3978 -1.0382,0.8376l0.013 1.5697c0.0042,0.5161 0.6198,0.7888 1.0695,0.7888 0.4497,0 0.9766,-0.2727 0.9809,-0.7888l0.013 -1.5697c0.0035,-0.4398 -0.4584,-0.8597 -1.0382,-0.8376z"/>
  <path class="fil1 str1" d="M40.9617 14.1974l0 -3.3338 -1.6669 0 0 2.1696c-0.0308,0.6548 -0.434,0.9837 -0.9129,1.1708"/>
  <path class="fil1 str1" d="M43.6204 10.9011c-0.5798,-0.0221 -1.0417,0.3978 -1.0382,0.8376l0.013 1.5697c0.0042,0.5161 0.6198,0.7888 1.0695,0.7888 0.4497,0 0.9766,-0.2727 0.9809,-0.7888l0.013 -1.5697c0.0035,-0.4398 -0.4584,-0.8597 -1.0382,-0.8376z"/>
  <path class="fil1 str1" d="M51.2117 10.9011c-0.5798,-0.0221 -1.0417,0.3978 -1.0382,0.8376l0.013 1.5697c0.0042,0.5161 0.6198,0.7888 1.0695,0.7888 0.4497,0 0.9766,-0.2727 0.9809,-0.7888l0.013 -1.5697c0.0035,-0.4398 -0.4584,-0.8597 -1.0382,-0.8376z"/>
  <path class="fil1 str1" d="M55.7839 11.752c0.0035,-0.4398 -0.4584,-0.8597 -1.0382,-0.8376 -0.5798,-0.0221 -1.0417,0.3978 -1.0382,0.8376l0.013 1.5697c0.0042,0.5161 0.6198,0.7888 1.0695,0.7888 0.4497,0 0.9766,-0.2727 0.9809,-0.7888"/>
  <polyline class="fil1 str1" points="45.9886,14.8985 45.9886,13.9592 48.7932,13.9592 48.7932,14.8456 "/>
  <path class="fil1 str1" d="M48.4095 13.8401l0 -2.9898 -1.6272 0 0 1.7198c-0.0106,0.6442 -0.3156,1.1991 -0.7937,1.3891"/>
  <line class="fil1 str1" x1="57.954" y1="14.204" x2="57.9525" y2= "10.8556" />
  <line class="fil1 str1" x1="56.684" y1="10.857" x2="59.2108" y2= "10.857" />
  <line class="fil1 str1" x1="60.2823" y1="14.204" x2="60.2808" y2= "10.7828" />
  <path class="fil1 str1" d="M60.2822 14.0844l1.259 0c0.893,-0.0924 1.0382,-1.5528 0,-1.8389l-1.2598 0"/>
 </g>
</svg>
