<?xml version="1.0" encoding="UTF-8"?>
<!DOCTYPE svg PUBLIC "-//W3C//DTD SVG 1.1//EN" "http://www.w3.org/Graphics/SVG/1.1/DTD/svg11.dtd">
<!-- Creator: CorelDRAW 2017 -->
<svg xmlns="http://www.w3.org/2000/svg" xml:space="preserve" width="26.5mm" height="19mm" version="1.1" style="shape-rendering:geometricPrecision; text-rendering:geometricPrecision; image-rendering:optimizeQuality; fill-rule:evenodd; clip-rule:evenodd"
viewBox="0 0 26.5 19"
 xmlns:xlink="http://www.w3.org/1999/xlink">
 <defs>
  <style type="text/css">
   <![CDATA[
    .str0 {stroke:#6F6266;stroke-width:0.15;stroke-miterlimit:22.9256}
    .fil0 {fill:#65AA21}
   ]]>
  </style>
 </defs>
 <g id="Слой_x0020_1">
  <metadata id="CorelCorpID_0Corel-Layer"/>
  <path class="fil0 str0" d="M10.905 10.4187c0,0 -2.7649,-0.9647 -2.8751,-2.5742 0.1905,-1.1445 0.5362,-2.1267 1.106,-3.0882 0.3307,-0.3748 -0.3343,-1.1452 -1.0839,-0.5278 -0.7496,0.6174 -1.8751,2.2404 -4.1452,0.904 -1.3523,-0.7961 -2.6077,-0.8774 -3.7704,-0.8158 0.4613,-1.1982 2.6328,-3.6046 3.7484,-3.8362 1.1686,-0.2426 2.0284,-0.5514 3.2852,0.1763 1.2568,0.7277 1.2568,1.5434 1.4332,1.7639 0.1764,0.2205 0.2867,0.6395 0.4851,0.9261 0.1984,0.2866 0.9293,-0.0194 1.1498,-0.0856 1.6931,-1.8715 4.1412,-3.0474 6.8636,-3.0474 5.1103,0 9.2531,4.1428 9.2531,9.253 0,5.1103 -4.1428,9.2531 -9.2531,9.2531 -4.4441,0 -8.0892,-3.139 -9.0452,-7.3035l2.9772 0.0179c0,0 0.5612,1.4824 1.4018,2.3059 0.3623,0.3552 0.7866,0.6156 1.0756,-0.0335l3.2281 -7.2512c0,0 0.5734,-0.9922 1.4553,0.0441 0.8819,1.0363 1.5434,1.6757 1.5434,1.6757 0,0 0.6614,0.7497 1.5434,-0.0882 0.882,-0.8379 1.1479,-0.9181 1.1479,-0.9181 0,0 0.639,-0.4029 -0.1768,-1.3289 -1.1276,-1.6496 -3.0239,-2.7324 -5.1731,-2.7324 -3.4584,0 -6.2618,2.8034 -6.2618,6.2618 0,0.3575 0.03,0.7082 0.0875,1.0492zm12.5237 -0.5272l-2.0523 1.4489c-0.7759,0.5933 -1.3534,0.5565 -1.9638,-0.0278l-1.7745 -2.3482 -2.0547 6.7738c0.6557,0.1797 1.3554,0.2394 2.0717,0.1837 3.2132,-0.2497 5.6707,-2.8826 5.7736,-6.0304z"/>
 </g>
</svg>
