<svg width="36" height="36" viewBox="0 0 36 36" fill="none" xmlns="http://www.w3.org/2000/svg">
<path d="M33.4562 2.54387C32.1826 1.27032 30.6484 0.633545 28.8545 0.633545H7.14583C5.35189 0.633545 3.81774 1.27032 2.54416 2.54387C1.27058 3.81822 0.633789 5.35234 0.633789 7.14545V28.8528C0.633789 30.6467 1.27058 32.1809 2.54416 33.4544C3.81774 34.728 5.35189 35.3655 7.14583 35.3655H28.8537C30.6476 35.3655 32.1818 34.7288 33.4554 33.4544C34.729 32.1809 35.3665 30.6467 35.3665 28.8528V7.14545C35.3665 5.35234 34.7298 3.81742 33.4562 2.54387Z" stroke="#6F6266" stroke-miterlimit="10"/>
<path d="M29.0801 26.9972C28.7633 27.6902 28.0513 28.2937 26.9432 28.8069C25.8352 29.3201 24.8515 29.576 23.9914 29.576C23.7498 29.576 23.494 29.5578 23.2223 29.5197C22.9506 29.4817 22.7217 29.4445 22.5332 29.4065C22.3447 29.3685 22.096 29.3011 21.7871 29.2029C21.4783 29.1055 21.2557 29.0295 21.1203 28.9772C20.984 28.9249 20.7353 28.8307 20.3742 28.6945C20.0122 28.5582 19.7857 28.4751 19.6962 28.4458C17.2243 27.5405 14.8078 25.909 12.4483 23.5504C10.0889 21.191 8.45733 18.7753 7.55283 16.3035C7.52273 16.2132 7.43957 15.9867 7.30413 15.6247C7.1687 15.2628 7.07445 15.0141 7.02138 14.8786C6.96911 14.7432 6.89386 14.5207 6.79565 14.2118C6.69744 13.9029 6.63012 13.6542 6.5921 13.4657C6.55408 13.2772 6.51686 13.0475 6.47884 12.7767C6.44082 12.505 6.42261 12.2484 6.42261 12.0076C6.42261 11.1483 6.67922 10.1646 7.19167 9.05659C7.70411 7.94857 8.30684 7.23655 9.00066 6.91975C9.79981 6.58789 10.5609 6.42236 11.2849 6.42236C11.4504 6.42236 11.5716 6.43741 11.6468 6.46751C11.7221 6.4984 11.8464 6.63304 12.0199 6.8746C12.1933 7.11616 12.3818 7.42109 12.5854 7.79016C12.7889 8.16003 12.9885 8.51802 13.1849 8.86413C13.3806 9.21103 13.5691 9.55397 13.7504 9.89295C13.931 10.2319 14.0443 10.4474 14.0894 10.5369C14.1346 10.6129 14.2328 10.7554 14.3833 10.9669C14.5338 11.1776 14.647 11.3661 14.7223 11.5316C14.7975 11.6971 14.8355 11.8555 14.8355 12.0068C14.8355 12.2333 14.6811 12.5082 14.3722 12.8321C14.0633 13.156 13.7235 13.4538 13.3544 13.7255C12.9853 13.9971 12.6464 14.287 12.3367 14.5959C12.0278 14.9048 11.8733 15.1574 11.8733 15.3531C11.8733 15.4584 11.8995 15.5827 11.9525 15.7261C12.0056 15.8695 12.0547 15.9867 12.0999 16.077C12.145 16.1672 12.2171 16.2956 12.3145 16.4619C12.4127 16.6282 12.4769 16.7335 12.507 16.7787C13.3362 18.2708 14.2898 19.5563 15.367 20.6342C16.4449 21.7121 17.7304 22.6657 19.2226 23.4949C19.2677 23.525 19.373 23.5892 19.5394 23.6874C19.7049 23.7848 19.8332 23.8569 19.9235 23.902C20.0138 23.9472 20.1302 23.9963 20.2744 24.0485C20.4177 24.1008 20.5421 24.1277 20.6482 24.1277C20.889 24.1277 21.2208 23.879 21.643 23.3817C22.0651 22.8835 22.4952 22.3901 22.9324 21.9006C23.3696 21.4111 23.7229 21.1664 23.9953 21.1664C24.1458 21.1664 24.3042 21.2036 24.4705 21.2789C24.6369 21.3541 24.8246 21.4674 25.0352 21.6179C25.2467 21.7691 25.3901 21.8665 25.4653 21.9125L26.6637 22.5675C27.4628 22.9896 28.1297 23.3627 28.6651 23.6866C29.2005 24.0105 29.4904 24.2331 29.5363 24.3535C29.5664 24.4287 29.5807 24.5499 29.5807 24.7154C29.5783 25.4393 29.412 26.2004 29.0801 26.9972Z" fill="#6F6266" stroke="#6F6266"/>
</svg>
