<svg width="119" height="119" viewBox="0 0 119 119" fill="none" xmlns="http://www.w3.org/2000/svg">
<path d="M71.4889 78.7841C70.2824 80.2217 68.0695 84.0056 68.8705 87.6405M29.6714 62.5346C40.3247 59.7879 61.1539 51.1985 59.244 38.8149" stroke="#6F6266" stroke-width="2"/>
<path d="M88.8936 62.5346C78.2402 59.7879 57.4111 51.1985 59.321 38.8149" stroke="#6F6266" stroke-width="2"/>
<path d="M67.2533 79.1689C66.3805 80.2471 64.7581 82.9733 65.251 85.2529" stroke="#6F6266" stroke-width="2"/>
<path d="M76.9568 100.249C78.1701 100.921 81.1366 102.045 83.296 101.164" stroke="#6F6266" stroke-width="2"/>
<path d="M41.9932 72.2378C43.4821 73.4957 47.5842 75.2567 52.0817 72.2378" stroke="#6F6266" stroke-width="2"/>
<path d="M67.2534 72.2378C68.7423 73.4957 72.8445 75.2567 77.342 72.2378" stroke="#6F6266" stroke-width="2"/>
<path d="M36.9105 82.6346C32.7005 69.0035 31.2116 41.0636 58.9359 38.3528C86.6602 35.6419 86.1981 63.664 82.5015 78.0139" stroke="#6F6266" stroke-width="2"/>
<path d="M36.9106 82.4805C40.3505 89.3345 48.6935 101.117 59.3211 101.117C67.4074 101.117 72.2078 94.6227 72.6442 93.3392" stroke="#6F6266" stroke-width="2"/>
<path d="M36.8336 82.4035C30.1849 76.8587 18.2891 60.9788 23.8956 41.8182C29.502 22.6577 46.0493 17.1487 53.6222 16.7893C61.7341 15.7625 81.9202 16.8561 90.5879 33.578C99.2903 50.3666 95.4397 56.6815 93.8994 67.9253" stroke="#6F6266" stroke-width="2"/>
<path d="M52.5441 16.5581C51.3376 18.5861 48.3239 22.9039 45.9211 23.9513C42.9176 25.2605 42.4556 32.0375 44.92 32.8846C47.3843 33.7318 53.0062 34.4249 53.9303 34.6559C54.8545 34.887 57.0878 35.9651 57.0878 38.4295" stroke="#6F6266" stroke-width="2"/>
<path d="M90.896 61.61C91.204 59.3253 93.2218 54.6019 98.8282 53.9858C104.435 53.3698 104.245 46.3873 103.449 42.9731V37.7363" stroke="#6F6266" stroke-width="2"/>
<path d="M89.5869 66.847V64.3056C89.5612 63.4072 89.7854 61.5332 90.8961 61.5332C92.2823 61.5332 92.4363 63.3558 92.5133 64.3056V66.847" stroke="#6F6266" stroke-width="2"/>
<path d="M85.9673 70.0816V78.707C78.0351 76.8587 68.3259 81.3254 72.4132 91.2599C77.958 104.737 90.8191 94.1094 89.0478 88.9496C92.0051 88.8263 94.1306 84.7909 94.8237 82.7886V70.0816C91.6816 63.7975 87.6103 67.4632 85.9673 70.0816Z" stroke="#6F6266" stroke-width="2"/>
<path d="M85.8133 78.3218C86.4294 78.8609 87.0147 80.1239 84.4271 80.8632C81.1926 81.7873 75.2627 84.9448 77.8811 89.4885C79.9758 93.1235 83.6313 93.7755 85.1972 93.6472C86.4551 93.3391 88.9554 91.9683 88.8938 88.9494" stroke="#6F6266" stroke-width="2"/>
<circle cx="59.5" cy="59.5" r="58.5" stroke="#6F6266" stroke-width="2"/>
</svg>
