<svg width="392" height="367" viewBox="0 0 392 367" fill="none" xmlns="http://www.w3.org/2000/svg">
<path d="M69.0439 81.3613V194.338V261.705C69.0439 272.75 77.9983 281.705 89.044 281.705H274.904L350.172 363.718V281.705H370.058C381.103 281.705 390.058 272.75 390.058 261.705V81.3613C390.058 70.3156 381.103 61.3613 370.058 61.3613H89.0439C77.9983 61.3613 69.0439 70.3156 69.0439 81.3613Z" stroke="#6F6266" stroke-width="2"/>
<path d="M322.014 50.4096V21C322.014 9.95431 313.059 1 302.014 1H21C9.95431 1 1 9.95432 1 21V133.797V201.045C1 212.091 9.95433 221.045 21 221.045H58.1668" stroke="#6F6266" stroke-width="2"/>
<path d="M203.901 154.013H173.305C173.73 151.477 173.305 148.321 173.305 138.797C173.305 129.272 173.439 128.698 175.617 121.875C183.88 95.9791 207.725 89.3454 214.099 86.8095C220.473 84.2735 237.046 83.0055 249.795 86.8095C262.543 90.6134 274.016 100.757 282.94 113.437C291.864 126.117 286.765 150.209 284.215 156.549C281.665 162.888 267.642 174.3 257.444 179.372C249.285 183.43 247.245 191.207 247.245 194.588V219.948H217.924V186.98C217.924 185.712 217.924 180.64 219.199 176.836C220.473 173.032 219.199 170.496 238.321 157.817C253.619 147.673 256.594 135.838 256.169 131.189C255.319 125.272 248.775 113.691 229.397 114.705C210.02 115.719 204.326 131.189 203.901 138.797V154.013Z" stroke="#6F6266" stroke-width="2"/>
<path d="M247.729 231.471H217.548V263.847H247.729V231.471Z" stroke="#6F6266" stroke-width="2"/>
</svg>
