<svg width="23" height="22" viewBox="0 0 23 22" fill="none" xmlns="http://www.w3.org/2000/svg">
<path d="M18.0633 21.007L5.07756 21.007C2.8262 21.007 1 19.1962 1 16.9639L1 5.04304C1 2.81074 2.8262 1 5.07756 1L18.0633 1C20.3146 1 22.1408 2.81074 22.1408 5.04304L22.1408 16.9664C22.1408 19.1988 20.3146 21.007 18.0633 21.007Z" stroke="#6F6266" stroke-miterlimit="10"/>
<path d="M17.5857 5.19183L4.95877 9.74364C3.73435 10.185 3.93842 10.939 4.19351 11.2609C4.4486 11.3873 5.26488 11.7161 6.48931 12.0195C7.71374 12.323 8.53002 11.8931 8.78511 11.6402C10.6983 10.5022 10.6983 10.5022 13.7594 8.60565C15.5007 7.52674 15.0348 8.47919 14.5246 8.98496L10.6983 12.7781C10.0861 13.385 10.4432 14.0425 10.6983 14.2954C11.8463 15.054 12.9941 16.192 14.9073 17.33C16.3208 18.1707 16.8204 17.0771 16.8204 16.5713C17.4581 13.5368 18.8101 7.16428 19.1162 5.95046C19.4223 4.73665 18.2234 4.93895 17.5857 5.19183Z" fill="#6F6266"/>
</svg>
