<svg width="24" height="22" viewBox="0 0 24 22" fill="none" xmlns="http://www.w3.org/2000/svg">
<path d="M18.5244 21.0095L5.18776 21.0095C2.87555 21.0095 1 19.1988 1 16.9664L1 5.04304C1 2.81073 2.87555 1 5.18776 1L18.527 1C20.8393 1 22.7148 2.81073 22.7148 5.04304L22.7148 16.9664C22.7122 19.1988 20.8367 21.0095 18.5244 21.0095Z" stroke="#6F6266" stroke-miterlimit="10"/>
<path d="M20.9143 15.0433C20.8913 14.9975 20.8698 14.9595 20.8499 14.9291C20.5199 14.3807 19.8895 13.7075 18.9589 12.9094L18.9392 12.8912L18.9294 12.8822L18.9194 12.873H18.9094C18.4871 12.5014 18.2196 12.2515 18.1076 12.1236C17.9027 11.8799 17.8568 11.6332 17.9688 11.3833C18.0479 11.1945 18.3451 10.7957 18.8598 10.1864C19.1305 9.86345 19.3449 9.60464 19.5033 9.40966C20.6452 8.00844 21.0813 7.02191 20.9294 6.63198C20.8898 6.57712 20.7875 6.52694 20.6227 6.48117C20.6227 6.48117 19.9733 6.45848 19.9888 6.45838L17.1376 6.47656C17.1376 6.47656 17.0289 6.48117 16.9395 6.48117C16.8822 6.48117 16.8108 6.50866 16.8108 6.50866L16.7612 6.53155L16.7218 6.55904C16.6888 6.57722 16.6525 6.60919 16.6128 6.6549C16.5734 6.70044 16.5404 6.75389 16.5141 6.8148C16.2036 7.55193 15.8507 8.23728 15.4546 8.87081C15.2104 9.24858 14.9861 9.57597 14.7812 9.85317C14.5767 10.1303 14.4051 10.3344 14.2666 10.4653C14.1279 10.5963 14.0027 10.7013 13.8903 10.7805C13.778 10.8599 13.6923 10.8934 13.633 10.8811C13.5735 10.8689 13.5175 10.8567 13.4645 10.8445C13.3722 10.7897 13.2979 10.7151 13.2419 10.6206C13.1856 10.5262 13.1478 10.4074 13.128 10.2642C13.1083 10.121 13.0966 9.99774 13.0933 9.89414C13.0902 9.79066 13.0916 9.6443 13.0983 9.45546C13.1052 9.26653 13.1083 9.1387 13.1083 9.07168C13.1083 8.84015 13.1132 8.58887 13.123 8.31777C13.133 8.04668 13.141 7.83189 13.1478 7.67365C13.1545 7.51525 13.1577 7.34767 13.1577 7.171C13.1577 6.99432 13.146 6.85577 13.123 6.7552C13.1002 6.65477 13.0653 6.55728 13.0193 6.46276C12.973 6.36835 12.9052 6.29531 12.8163 6.24346C12.7273 6.19167 12.6165 6.15058 12.4847 6.12004C12.1348 6.04697 11.6894 6.00745 11.148 6.0013C9.92044 5.98914 9.13166 6.0623 8.78184 6.2207C8.64324 6.28763 8.51782 6.37907 8.40567 6.49474C8.28684 6.62881 8.27026 6.70198 8.35605 6.71401C8.75212 6.76877 9.03252 6.89978 9.19754 7.10689L9.25701 7.21664C9.30327 7.29582 9.34946 7.43601 9.39568 7.637C9.44184 7.838 9.47162 8.06035 9.48473 8.30392C9.51767 8.7487 9.51767 9.12945 9.48473 9.44618C9.45169 9.76304 9.42048 10.0097 9.39069 10.1864C9.3609 10.3631 9.31638 10.5062 9.25701 10.6158C9.19754 10.7255 9.15798 10.7925 9.13814 10.8168C9.11834 10.8412 9.10184 10.8565 9.08873 10.8625C9.00294 10.8929 8.91372 10.9083 8.82137 10.9083C8.72889 10.9083 8.61675 10.8656 8.48477 10.7803C8.35282 10.695 8.21589 10.5778 8.07396 10.4285C7.93203 10.2792 7.77196 10.0705 7.59369 9.80251C7.41556 9.53449 7.23073 9.21772 7.03932 8.85221L6.88095 8.58714C6.78195 8.41661 6.64671 8.16831 6.4751 7.84245C6.30338 7.51647 6.1516 7.20115 6.01966 6.89654C5.96691 6.76861 5.88768 6.67122 5.78209 6.6042L5.73254 6.57671C5.69959 6.55238 5.64671 6.52655 5.57417 6.49903C5.50152 6.47153 5.42572 6.45182 5.34645 6.43969L2.63375 6.45787C2.35654 6.45787 2.16846 6.51583 2.06942 6.6316L2.02979 6.68636C2.00999 6.71686 2 6.76557 2 6.83263C2 6.89965 2.0198 6.9819 2.05944 7.0793C2.45544 7.93834 2.88609 8.76682 3.35137 9.56486C3.81666 10.3629 4.22099 11.0057 4.56411 11.4928C4.90731 11.9802 5.25712 12.4403 5.61356 12.8727C5.97 13.3052 6.20594 13.5824 6.32138 13.7042C6.43695 13.8262 6.52773 13.9174 6.59372 13.9783L6.84128 14.1976C6.99968 14.3439 7.23229 14.519 7.53921 14.723C7.8462 14.9272 8.18607 15.1282 8.55898 15.3263C8.93195 15.5242 9.36586 15.6856 9.86094 15.8105C10.3559 15.9355 11.2944 15.9614 11.2944 15.9614H12.445C12.6759 15.943 12.8508 15.876 12.9697 15.7603L13.0091 15.7145C13.0356 15.6782 13.0604 15.6217 13.0833 15.5457C13.1064 15.4695 13.118 15.3856 13.118 15.2944C13.1112 15.0325 13.1328 14.7964 13.1822 14.5863C13.2315 14.3762 13.2878 14.2178 13.3507 14.1111C13.4135 14.0045 13.4845 13.9146 13.5634 13.8417C13.6426 13.7686 13.699 13.7243 13.732 13.7091C13.7649 13.6938 13.7912 13.6834 13.811 13.6771C13.9694 13.6284 14.1558 13.6756 14.3705 13.8189C14.585 13.9621 14.7863 14.1388 14.9745 14.3489C15.1626 14.5592 15.3886 14.7951 15.6526 15.057C15.9167 15.319 16.1477 15.5138 16.3456 15.6419L16.5435 15.7515C16.6757 15.8247 16.8473 15.8917 17.0586 15.9526C17.2695 16.0135 17.6129 15.9983 17.6129 15.9983L20.1472 15.9618C20.3979 15.9618 20.593 15.9235 20.7313 15.8475C20.87 15.7714 20.9523 15.6875 20.9789 15.5962C21.0054 15.5049 21.0068 15.4012 20.9839 15.2854C20.9604 15.1698 20.9373 15.089 20.9143 15.0433Z" fill="#6F6266"/>
</svg>
